<?xml version="1.0" encoding="utf-8"?>
<!-- Generator: Adobe Illustrator 15.0.0, SVG Export Plug-In . SVG Version: 6.00 Build 0)  -->
<!DOCTYPE svg PUBLIC "-//W3C//DTD SVG 1.1//EN" "http://www.w3.org/Graphics/SVG/1.1/DTD/svg11.dtd">
<svg version="1.1" id="Layer_1" xmlns="http://www.w3.org/2000/svg" xmlns:xlink="http://www.w3.org/1999/xlink" x="0px" y="0px"
	 width="1252px" height="1144px" viewBox="0 0 1252 1144" enable-background="new 0 0 1252 1144" xml:space="preserve">
<g>
	<polygon fill="#BFBFBF" points="816.25,602.25 826,578 821,575.125 812.75,589.75 802.75,586.25 828.75,544.5 854,513 
		914.625,440.375 926.75,448.75 934.75,440.25 926.375,431.25 938.625,421.875 961.75,424.5 958.125,428.375 949.5,436.125 
		843,563.375 819.625,604.875 815.75,603.125 	"/>
	<g>
		<path fill="#BFBFBF" d="M692,506l12.875,12.5l4.375,10.625l22.25,0.5c0,0-0.625,7.375,3.5,16.375s6.875,11.75,6.875,11.75
			l6.75-4.125l6,7.625l-11.5,16.75c0,0,8.75,8.125,26.75,8.75s28.875-4.875,28.875-4.875l12.125-19.25l-5.75-3.125l71.75-95.625
			l4.625,2.75l50.25-63.25l-16.875-12.5L888.25,370.25c0,0-23.375-15.25-54-10.375S794,379.75,794,379.75l-19-5
			c0,0-6.75-1.875-9.5,7.25s-0.5,9.25-6.25,15.375S749.153,401.284,740,417c-6.625,11.375-15,11.875-14.5,20.625
			s9.625,14.625,9.625,14.625"/>
		<path fill="#BFBFBF" d="M643.5,298.5c1.167,3.5-0.834,6.833-2.667,7.5s-7.833,3-6.166,9c1.666,6,9.166,29.167,9.166,29.167
			l14.334-4.334c0,0,5.667,25-1,31.834C650.5,378.5,631.833,393,631.833,393l0.834,11l24.666-16l11.5-15.667l2.334-14.5l-2-19.333
			l-11-33l-10.5,0.333L643.5,298.5z"/>
		<path fill="#BFBFBF" d="M455.167,343.5L466.5,370c0,0,5.334,11,13.667,7.333c8.333-3.666,7-4.166,7-4.166s-5.333-13-6-15.5
			s-8.833,0-11-5.167S467,344.833,467,344.833"/>
		<path fill="#BFBFBF" d="M457,459.75c0,0,8.25,4.417,12.5,5.25s12.5,1.417,12.5,1.417s-7,0.583-5.417,6.333
			c1.584,5.75,3.75,12.75,4.417,14.167c0.667,1.416,2.417,1.5,3.333,1.25c0.917-0.25,6.25-4.417,6.25-4.417l8.917,5.167
			l-4.167,4.666l-3.25,5.667l-12.75,1.583c0,0,0.212-14.307-5.083-22.25C467.083,467.833,457,459.75,457,459.75"/>
		<polygon fill="#BFBFBF" points="639.584,617.583 645.75,633.083 680.995,618.949 675.084,603.916 		"/>
		<path fill="#BFBFBF" d="M692,506l-7.5,10l-5.75,7.167l7.167,25l6.166,16.083l-5.583,2.834l17.25,28.083l16.5-8.334l-1.667-2.666
			l10.167-6.5l-3.917-4.417l-9.75,4.417l-7.666-13.584L718.5,560.5l-2.5-7.417l-3.25,0.5l-9-29.75c0,0,1.415-2.24,2.791-1.287
			c1.376,0.954-1.666-4.046-1.666-4.046L692,506"/>
		<path fill="#BFBFBF" d="M726.627,689.394c-0.213,1.416-0.335,2.231-0.335,2.231S726.553,690.643,726.627,689.394"/>
		<path fill="#BFBFBF" d="M726.417,647.375c-2.75-0.25-9-1.125-9-1.125l-5.375,36.125c0,0,7.5,1,11.75,1.875
			c2.6,0.535,2.952,3.174,2.835,5.144c1.263-8.403,5.716-37.997,6.815-44.687C732.45,648.025,728.92,647.603,726.417,647.375
			 M728.869,655.63l-3.271,20.922c-0.303,1.946-2.126,3.276-4.072,2.974c-1.945-0.305-3.276-2.129-2.973-4.074l3.27-20.922
			c0.305-1.945,2.127-3.275,4.073-2.973C727.842,651.861,729.173,653.685,728.869,655.63"/>
		<path fill="#BFBFBF" d="M733.442,644.707c0.098-0.327,0.18-0.678,0.225-1.082C733.735,643.009,733.646,643.467,733.442,644.707"/>
		<polyline fill="#BFBFBF" points="631.625,693.125 640.125,681.875 666.5,702.25 657.125,714.25 		"/>
		<line fill="#BFBFBF" x1="502.5" y1="695.5" x2="506.75" y2="695.375"/>
		<path fill="#BFBFBF" d="M498.5,694.5l0.5-6.25l7.25-5.375l0.875,18.25l7.125,2l0.125,4.25l-2.5,1.625l3.375,5l-0.25,4.5
			l-3.625,5.875l0.25,17.533l6.25-0.191l4.458,6.45l0.144,5.208c0,0-6.352-0.5-10.352,3.75s-3.875,7-3.875,7l-1.125-8.5l0.333-1.083
			l-8.708-0.042l0.125-14.845l7.875-0.205l0.125-14.2l-4.333,0.125"/>
		<polygon fill="#BFBFBF" points="522.5,791.168 519.167,799.084 520.917,799.918 521.417,799.084 520.25,798.584 522.083,795.501 
			524.833,796.584 522.917,811.084 550.917,812.751 553.5,794.251 		"/>
		<path fill="#BFBFBF" d="M489.917,816.251l6.083,0.25l0.25-4.583l19.417,2.416l-0.25,3.584l8.417,0.166
			c0,0,0.916,6.999,0.166,7.083s-29.5-2.499-29.5-2.499l-4.916-0.5L489.917,816.251z"/>
		<path fill="#BFBFBF" d="M629.25,776.625C629.25,777,645,805.75,645,805.75l43.375-27l-3.25-6.625L699.5,763.5l-7.5-14.875
			l-20.25,14.25l-8-9.125c0,0-11.375,9.875-15.375,11.75S630,776.75,630,776.75"/>
	</g>
	<polyline fill="#009FE3" points="905.667,378.667 899.417,372.766 959.584,296.6 967.167,301.834 967.167,308.5 910.366,378.5 	"/>
	<polygon fill="#009FE3" points="973.333,313.333 984,312.167 994,317.833 934.5,398.667 925,392.5 921.333,380 	"/>
	<g>
		<path fill="#009FE3" d="M946.666,291.417l-3.416-2.5l-6.084,0.417L919,283.084l-86.834-3.584c0,0-15.5-0.833-21.833-4.166
			C804,272,792.584,263.25,782,268.834c-10.584,5.583-14.416,18.333-19,27.5c-4.584,9.166-14.001,22.166-20.834,29.5
			c-6.833,7.333-16.917,22.333-22.75,30.416c-5.833,8.084-15.332,20.333-27.666,34s-17.166,17.833-27,31.5
			s-23.917,32.417-23.917,32.417l0.333,10.25l4.334,1.5l17.083-23.667c0,0,24.499-26,31.083-35.333s15.335-24.417,28.501-39.667
			s18.084-25.75,30.25-40.583s29.332-37.084,31.416-39.25c2.084-2.167,9.918-11.833,20.334-2.833s12.167,10.666,12.5,12.5
			c0.333,1.833,0.334,6.916-1,9c-1.334,2.083-4.334,6.166-4.334,6.166s4.583,4.334,5.5,5.25c0.917,0.917,2,3.834,0,6.5
			c-2,2.667-5.25,7.584-5.25,7.584l5.917,7.083l0.167,10.25l3.583,3.917l26.666-1.334c0,0,17.666,4.667,21,5.5
			c3.334,0.834,8.75,1.333,12.167-1.25s6.25-4.166,6.25-4.166l10.966,3.25L946.666,291.417z"/>
		<path fill="none" stroke="#009FE3" stroke-width="1.5" stroke-miterlimit="10" d="M1236.625,102.75c0,0-12,11.625-12.875,13.375
			s-2.875,6.125-2.875,6.125l-2.25,15.625l-45.5,41.875l-13.5,4l-33.5,36l-1.25,42.125l-2.75,3.25h-70l-20.375,15.625l-49.75-37"/>
		<path fill="none" stroke="#009FE3" stroke-width="1.5" stroke-miterlimit="10" d="M1175-7.5c-10.875,5.5-18.375,8.5-24,10.25
			s-16.397,7.555-22.5,11.5c-12.375,8-26.625,42.875-26.625,42.875L1113.625,69l-0.875,5.75c0,0-18.375,23.375-20.875,26.125
			s-4.625,11.75-6,12.625s-6,1-6,1l-4.375,4.25l-0.625,6.5L1068,127.5l-4.875,5.125c0,0-1.75,11.5-3,12.625s-8.5,1.125-8.5,1.125
			l-4,3.625l0.125,7.625l-11.5,8.25l-0.625,9.125l-2.5,2.375l-6.375,0.75l-4.5,4.875l-1.5,8.75l-10.375,8.25l-5.5,11.125
			L1001,211.75l-4,4.625l-0.5,5.375l-4.375,1.375l-6,6.25l-3,14.375l-11.75,2.5l-5.625,7.375l0.625,8.5c0,0-3.625,1.375-5.125,2.25
			S942.375,290,942.375,290"/>
		<path fill="#009FE3" d="M757.251,382.417c0,0-3.251,14.583-3.584,15.667c-0.333,1.083-16.666,15.416-17.916,16.5
			c-1.25,1.083-6.167,12.583-6.917,14.083s-7.583,1.25-7.583,1.25l-11.167-10.583c0,0,2.25-19.584,6.5-23.834s14.5-11.833,21-13.666
			C744.084,380,746.501,378.834,757.251,382.417"/>
		<path fill="none" stroke="#009FE3" stroke-width="1.5" stroke-miterlimit="10" d="M642.334,464.25l-22.25,41.333L600.668,549
			l-6.501,22.834l-7.083,77.666l10.917,10.168l-12.084,10.083l-3.416,52.416l-17.417,19.334l-15.333,12.25l-21.583,7.416
			l-17.167,16.084l-11.667,3.166l-19.5,20.25l-22.667,13.25l-8.083,2.417l-8.666,7.25l-0.667,18.667l-22.167,22.333l-0.167,11.083
			l25.584,26l4.25,0.834l14.583,12.666l27.167,12.667c0,0,11.167,8.751,14.417,13.084s12.999,18.749,18.583,24.416
			c5.583,5.667,24.833,11.25,24.833,11.25l6.5,5.667c0,0,5.501,8-1.166,14.75s-31.667,32.332-33.167,34.166s-2.417,7.166-2.417,9.5
			s1.333,38.5,1.333,38.5l-13.5,14.167c0,0-4.333,3.333-9.416,3.333c-5.084,0-11.75-0.25-11.75-0.25l-18-13.333h-8
			c-1.334,0-4,1.833-4.75,4.083s-2.917,14.584-2.917,14.584l-4.25,3.583l-3.917,19.167l-3.166,6.25"/>
		<polyline fill="none" stroke="#009FE3" stroke-width="1.5" stroke-miterlimit="10" points="643.75,464.375 667,487.125 
			679.75,491.625 691.375,491 716.375,470.375 718.75,460.875 716.5,442.125 722.875,428.5 		"/>
		<path fill="none" stroke="#009FE3" stroke-width="1.5" stroke-miterlimit="10" d="M756.125,383l16-12.625l10.625,0.5l7.875,3.5
			l20.75-0.125c0,0,7.875-8.25,8.875-10.75s2.625-11.75,2.625-11.75"/>
		<path fill="none" stroke="#009FE3" stroke-width="10" stroke-miterlimit="10" d="M1240.5,320c0,0-75.5,8.5-143,41
			s-130.22,73.337-207,157.5C864.5,547,810,654,792,729.5c-10.086,42.303-15.111,143.009-13,169.5c5.5,69,38,153,38,153
			s11.5,14,14.5,15s12.5,1,16.5,12.5s7.5,28,7.5,28l41,34"/>
		<path fill="#009FE3" d="M1131.25,863l10,5.25l17.5,0.5l52.5-22.75c0,0,17.25-2.25,18-2.25s34-21,34-21l16.25,93.5l-52.75-4.25
			c0,0-39,5.5-51.75,2s-41.75-15.75-43-22.5S1131.25,863,1131.25,863"/>
		<polyline fill="none" stroke="#000000" stroke-width="13" stroke-miterlimit="10" points="48,-6 32.667,142 28,280.667 
			36.667,934.666 20,1129.332 		"/>
		<path fill="none" stroke="#000000" stroke-width="4" stroke-miterlimit="10" d="M30.667,280.666l76-0.667l11.333-4l92-0.665
			L238.667,273L290,261.667L367.333,237L435,206.667l56.667-30.333c0,0,29.333-20.667,75.667-20
			c46.333,0.666,55.333,13.333,72.666,22.333c17.334,9,36.349,22.963,77.667,24.667C749.999,204.667,764,216.333,769.333,217
			s13.666,0,13.666,0l50.334,13c0,0,33.333,23,48.666,24.334c15.334,1.333,36.253,3.036,40.918,3.036
			c4.666,0,15.416,2.964,38.416,20.297S1007.999,315,1007.999,315s3.334,3,20,0c16.667-3,58.667-22.333,104.667-36.666
			C1178.666,264,1268.999,251,1268.999,251"/>
		<path fill="none" stroke="#000000" stroke-width="4" stroke-miterlimit="10" d="M1011.333,317c-6.333-0.333-22.667-6-28-9.667
			c-5.333-3.666-46.666-35-49.333-37s-14.334-5.666-26.667-5.666s-65.332-0.667-73.666-1c-8.334-0.334-51.334-16.667-70.334-21
			c-19-4.334-39.999-4.334-52.666,0.333s-20,10-20,10L641,285.667L621,296.5L574,307c0,0-53.25-3.25-96.5-5.25s-65.5,4.25-84.25,8.5
			C374.451,314.511,323,329.5,285.75,324S161,286,161,286l-53.53-5.959"/>
		<line fill="none" stroke="#000000" stroke-width="4" stroke-miterlimit="10" x1="208.5" y1="277" x2="205" y2="301.25"/>
		<path fill="none" stroke="#000000" stroke-width="4" stroke-miterlimit="10" d="M632,175.5l-7,15.25c0,0-6.25,13.25-5.5,20
			s3.75,17.25,3.75,17.25l34.523,110.917l0.727,2.333c0,0,5.986,19.149-1.5,30.75c-6.065,9.399-22.75,19.5-22.75,19.5
			s-3.25,2.25-3,4.75s1,8.5,1,8.5s21.073-12.47,27.934-20.351C672.5,370.25,673.5,360.25,668.25,337.75l-10.5-32.5L647.5,306"/>
		<line fill="none" stroke="#000000" stroke-width="4" stroke-miterlimit="10" x1="667.25" y1="337.25" x2="659.033" y2="338.385"/>
		<path fill="none" stroke="#000000" stroke-width="4" stroke-miterlimit="10" d="M996.5-7.25l140,106.5c0,0,37.5,31.75,44.75,38.25
			s37.25,59,37.25,59L1248,255"/>
		<line fill="none" stroke="#000000" stroke-width="4" stroke-miterlimit="10" x1="1219.75" y1="-8" x2="982.25" y2="294.25"/>
		<path fill="none" stroke="#000000" stroke-width="4" stroke-miterlimit="10" d="M954.25,286.25l122.25-155.5
			c0,0,5.25-5.75,12.25-7.75s37.25-11,37.25-11"/>
		<line fill="none" stroke="#000000" stroke-width="4" stroke-miterlimit="10" x1="1240.5" y1="176.75" x2="1217.75" y2="194.75"/>
		<path fill="none" stroke="#000000" stroke-width="4" stroke-miterlimit="10" d="M1220.75,201.75l-38.75,10c0,0-7.5-7.5-16.75-5.75
			s-9.75,12-9.75,12h-12.25c0,0,1.75-21.75,21.5-23.5s27.5,13.5,27.5,13.5"/>
		<polyline fill="none" stroke="#000000" stroke-width="4" stroke-miterlimit="10" points="866.875,370.625 837.625,368.625 
			816.875,374.75 		"/>
		<polyline fill="none" stroke="#000000" stroke-width="4" stroke-miterlimit="10" points="866.25,381.75 837,379.75 
			815.375,387.375 798.875,399.75 		"/>
		
			<line fill="none" stroke="#000000" stroke-width="4" stroke-miterlimit="10" x1="813.125" y1="366.125" x2="821.25" y2="384.625"/>
		<path fill="none" stroke="#000000" stroke-width="4" stroke-miterlimit="10" d="M865.375,400.75c0,0-13.55-10.143-32-7.375
			c-15,2.25-24,8.625-27.625,13s-48.375,60.875-48.375,60.875"/>
		<line fill="none" stroke="#000000" stroke-width="4" stroke-miterlimit="10" x1="784.325" y1="388.522" x2="806.75" y2="406"/>
		
			<line fill="none" stroke="#000000" stroke-width="4" stroke-miterlimit="10" x1="777.257" y1="396.397" x2="799.682" y2="413.875"/>
		
			<line fill="none" stroke="#000000" stroke-width="4" stroke-miterlimit="10" x1="769.667" y1="405.147" x2="792.092" y2="422.625"/>
		
			<line fill="none" stroke="#000000" stroke-width="4" stroke-miterlimit="10" x1="762.967" y1="413.306" x2="785.392" y2="430.784"/>
		
			<line fill="none" stroke="#000000" stroke-width="4" stroke-miterlimit="10" x1="756.174" y1="422.239" x2="778.599" y2="439.717"/>
		
			<line fill="none" stroke="#000000" stroke-width="4" stroke-miterlimit="10" x1="749.417" y1="430.397" x2="771.842" y2="447.875"/>
		
			<line fill="none" stroke="#000000" stroke-width="4" stroke-miterlimit="10" x1="742.594" y1="440.147" x2="765.019" y2="457.625"/>
		
			<line fill="none" stroke="#000000" stroke-width="4" stroke-miterlimit="10" x1="727.594" y1="459.147" x2="750.019" y2="476.625"/>
		<line fill="none" stroke="#000000" stroke-width="4" stroke-miterlimit="10" x1="721.594" y1="467.647" x2="735.5" y2="478.75"/>
		
			<line fill="none" stroke="#000000" stroke-width="4" stroke-miterlimit="10" x1="100.333" y1="627.667" x2="168.333" y2="624.251"/>
		<path fill="none" stroke="#000000" stroke-width="2" stroke-miterlimit="10" d="M167.75,624.5L328.667,614l154,4l130.666,3.333
			c0,0,11.667,1,26.667-4.333c15.296-5.438,18.043-6.857,35.084-13.084"/>
		<path fill="none" stroke="#000000" stroke-width="2" stroke-miterlimit="10" d="M890.125,370.938c0,0-19.792-14.271-50.792-11.271
			s-48.166,22.334-51.666,26.5c-3.5,4.167-153,191.833-153,191.833L617.5,604.5c0,0-9,14.5-7.5,37.166
			c1.5,22.668,8.667,40.668,8.667,40.668l61.833,51.832c0,0,17.5,16,23,40.668c5.5,24.666,6,64.832,6,64.832l8.834,50.5l9.333,96
			L776,1153"/>
		<path fill="none" stroke="#000000" stroke-width="2" stroke-miterlimit="10" d="M692.334,505.666c0,0,9.499,9.833,11.166,11.5
			s4.667,7.167,5.667,11.333c1,4.167,10.167,33,10.167,33s3.5,13.001,18.333,22.834s21.333,12.167,35,12.5
			s31.167,0.833,31.167,0.833l15.833,7"/>
		<polyline points="154.792,1065.417 176.167,1074.542 154.542,1023.542 133.605,1074.542 154.979,1065.417 		"/>
		<polyline fill="none" stroke="#000000" stroke-miterlimit="10" points="154.792,1065.417 176.167,1074.542 154.542,1023.542 
			133.605,1074.542 154.979,1065.417 		"/>
		<polyline fill="#FFFFFF" points="154.542,1023.542 133.605,1074.542 154.979,1065.417 		"/>
		<line fill="#FFFFFF" x1="660.084" y1="1105.084" x2="546.584" y2="1105.084"/>
		
			<line fill="none" stroke="#000000" stroke-width="2" stroke-miterlimit="10" x1="660.084" y1="1105.084" x2="546.584" y2="1105.084"/>
		<line fill="#FFFFFF" x1="659.916" y1="1100.167" x2="659.916" y2="1106.059"/>
		
			<line fill="none" stroke="#000000" stroke-width="2" stroke-miterlimit="10" x1="659.916" y1="1100.167" x2="659.916" y2="1106.059"/>
		<line fill="#FFFFFF" x1="546.867" y1="1100.167" x2="546.867" y2="1106.059"/>
		
			<line fill="none" stroke="#000000" stroke-width="2" stroke-miterlimit="10" x1="546.867" y1="1100.167" x2="546.867" y2="1106.059"/>
		<line fill="#FFFFFF" x1="546.95" y1="1105.084" x2="433.45" y2="1105.084"/>
		
			<line fill="none" stroke="#000000" stroke-width="2" stroke-miterlimit="10" x1="546.95" y1="1105.084" x2="433.45" y2="1105.084"/>
		<line fill="#FFFFFF" x1="433.733" y1="1100.167" x2="433.733" y2="1106.059"/>
		
			<line fill="none" stroke="#000000" stroke-width="2" stroke-miterlimit="10" x1="433.733" y1="1100.167" x2="433.733" y2="1106.059"/>
		<line fill="#FFFFFF" x1="433.867" y1="1105.084" x2="320.367" y2="1105.084"/>
		
			<line fill="none" stroke="#000000" stroke-width="2" stroke-miterlimit="10" x1="433.867" y1="1105.084" x2="320.367" y2="1105.084"/>
		<line fill="#FFFFFF" x1="320.65" y1="1100.167" x2="320.65" y2="1106.059"/>
		
			<line fill="none" stroke="#000000" stroke-width="2" stroke-miterlimit="10" x1="320.65" y1="1100.167" x2="320.65" y2="1106.059"/>
		<line fill="#FFFFFF" x1="320.7" y1="1105.084" x2="207.2" y2="1105.084"/>
		<line fill="none" stroke="#000000" stroke-width="2" stroke-miterlimit="10" x1="320.7" y1="1105.084" x2="207.2" y2="1105.084"/>
		<line fill="#FFFFFF" x1="207.483" y1="1100.167" x2="207.483" y2="1106.059"/>
		
			<line fill="none" stroke="#000000" stroke-width="2" stroke-miterlimit="10" x1="207.483" y1="1100.167" x2="207.483" y2="1106.059"/>
		<line fill="#FFFFFF" x1="207.617" y1="1105.084" x2="94.117" y2="1105.084"/>
		
			<line fill="none" stroke="#000000" stroke-width="2" stroke-miterlimit="10" x1="207.617" y1="1105.084" x2="94.117" y2="1105.084"/>
		<line fill="#FFFFFF" x1="94.4" y1="1100.167" x2="94.4" y2="1106.059"/>
		<line fill="none" stroke="#000000" stroke-width="2" stroke-miterlimit="10" x1="94.4" y1="1100.167" x2="94.4" y2="1106.059"/>
	</g>
	<text transform="matrix(1 0 0 1 141.9995 1016.667)" font-family="'MyriadPro-Regular'" font-size="38">N</text>
	<text transform="matrix(1 0 0 1 89.3325 1123.333)" font-family="'MyriadPro-Regular'" font-size="18">0</text>
	<text transform="matrix(1 0 0 1 188.6743 1123.333)" font-family="'MyriadPro-Regular'" font-size="18">200m</text>
	<text transform="matrix(1 0 0 1 302.0024 1123.333)" font-family="'MyriadPro-Regular'" font-size="18">400m</text>
	<text transform="matrix(1 0 0 1 412.6665 1123.333)" font-family="'MyriadPro-Regular'" font-size="18">600m</text>
	<text transform="matrix(1 0 0 1 525.9946 1123.333)" font-family="'MyriadPro-Regular'" font-size="18">800m</text>
	<text transform="matrix(1 0 0 1 635.9922 1123.333)" font-family="'MyriadPro-Regular'" font-size="18">1000m</text>
	<g>
		<path fill="none" stroke="#000000" stroke-width="2" stroke-miterlimit="10" d="M223.75,1126.75c0,0-26.814-108.168,20-198.5
			c35.5-68.5,73.369-92.211,80.5-96.5c34.5-20.75,96.5-41.25,106-43.5s65.75-3,65.75-3s49.5,14.5,88.75,5.75
			s76.25-27.668,95.75-56.834l24-11.416c0,0,14.5-6,18-16s12.25-57.25,11-67.75s-6-22-12.5-25.5"/>
		<circle fill="none" stroke="#000000" stroke-width="2" stroke-miterlimit="10" cx="717.833" cy="609.668" r="5.5"/>
		<circle fill="none" stroke="#000000" stroke-width="2" stroke-miterlimit="10" cx="777.25" cy="536.417" r="33.25"/>
		<line fill="none" stroke="#000000" stroke-width="2" stroke-miterlimit="10" x1="720.75" y1="605" x2="755.333" y2="562.084"/>
		<path fill="none" stroke="#000000" stroke-width="2" stroke-miterlimit="10" d="M870,1151l-37.375-57.125
			c0,0-19.25-22.125-24.125-35.25s-29.125-85.5-29.125-85.5l-12.25-85l-4.5-92.75l21.75-111.625L820.75,603l22.5-39.75l42.75-53
			L949.625,436l8.75-8.125L1068.125,353l105.375-36.75L1258,305"/>
		<line fill="none" stroke="#000000" stroke-width="2" stroke-miterlimit="10" x1="1061" y1="341.375" x2="1067.25" y2="353.25"/>
		<line fill="none" stroke="#000000" stroke-width="2" stroke-miterlimit="10" x1="940.75" y1="427.5" x2="949.625" y2="436"/>
		<line fill="none" stroke="#000000" stroke-width="2" stroke-miterlimit="10" x1="843.25" y1="563.25" x2="832.25" y2="556.625"/>
		<polyline fill="none" stroke="#000000" stroke-width="2" stroke-miterlimit="10" points="794,1018.375 817,1010.5 
			829.875,1014.125 847,1031.125 851.125,1037.75 		"/>
		<polyline fill="none" stroke="#000000" stroke-width="2" stroke-miterlimit="10" points="817,1010.5 808.25,933.25 
			811.25,715.125 813.25,709.5 820.125,705.375 1261,677 		"/>
		<path fill="none" stroke="#000000" stroke-width="2" stroke-miterlimit="10" d="M954.25,286.875L881.5,382.75
			c0,0-7.04,8.015,1.75,14.875c7.969,6.219,13.544,0.163,14.75-0.875c1.125-0.969,10.934-10.25,10.934-10.25l66.566-83.125"/>
		<polyline fill="none" stroke="#000000" stroke-width="2" stroke-miterlimit="10" points="890.5,371.562 915.062,391.375 
			922.875,408.5 884.75,456.125 		"/>
		<path fill="none" stroke="#000000" stroke-width="2" stroke-miterlimit="10" d="M482.667,618L479,505.25
			c0,0,2.75-23.5-11.75-36.25S440,448.75,438.5,425s0.5-36.75,10.75-43.75s17.409-11.062,17.409-11.062"/>
		<line fill="none" stroke="#000000" stroke-width="2" stroke-miterlimit="10" x1="506.25" y1="682.25" x2="508" y2="787.75"/>
		<polyline fill="none" stroke="#000000" stroke-width="2" stroke-miterlimit="10" points="497.625,786.375 495.25,821.875 
			523.75,825.25 523.75,811.375 533.625,792.875 		"/>
		<path fill="none" stroke="#000000" stroke-width="2" stroke-miterlimit="10" d="M439.333,343.5c0,0-0.252,10.304-0.532,22.834
			c-0.384,17.242-0.82,38.7-0.723,43.333"/>
		<path fill="none" stroke="#000000" stroke-width="2" stroke-miterlimit="10" d="M439.833,366.833c0,0,8.167,0.167,13.5-2.333
			s8.979-4.194,8.979-4.194"/>
		<path fill="none" stroke="#000000" stroke-width="2" stroke-miterlimit="10" d="M448.5,452c3,3,21,20.667,42.167,11.667
			c21.166-9,26.666-22.834,26.666-22.834"/>
		
			<line fill="none" stroke="#000000" stroke-width="2" stroke-miterlimit="10" x1="509.667" y1="450.833" x2="503.334" y2="445.167"/>
		<g>
			<path fill="#E3E3E3" d="M471,339.333c0,4.971-4.029,9-9,9s-9-4.029-9-9s4.029-9,9-9S471,334.362,471,339.333"/>
			<path fill="#E3E3E3" d="M507,480.833c0,4.971-4.029,9-9,9s-9-4.029-9-9s4.029-9,9-9S507,475.862,507,480.833"/>
			<path fill="#E3E3E3" d="M848.834,454.667c0,4.971-4.029,9-9,9s-9-4.029-9-9s4.029-9,9-9S848.834,449.695,848.834,454.667"/>
			
				<rect x="481.334" y="373.668" transform="matrix(0.8998 -0.4362 0.4362 0.8998 -117.0382 249.4429)" fill="#E3E3E3" width="6.667" height="11.832"/>
			
				<rect x="488.898" y="492.968" transform="matrix(0.6302 -0.7764 0.7764 0.6302 -202.6604 565.946)" fill="#E3E3E3" width="7.838" height="5.528"/>
			<polygon fill="#E3E3E3" points="720.629,586.902 709.15,593.097 696.2,569.091 707.671,562.89 			"/>
			<polygon fill="#E3E3E3" points="680.268,619.096 646.881,632.745 644.539,627.011 677.916,613.363 			"/>
			<polygon fill="#E3E3E3" points="717.958,644.394 712.5,685.25 708.762,684.748 714.217,643.903 			"/>
			<polygon fill="#E3E3E3" points="667.26,703.688 637.976,680.619 640.312,677.658 669.589,700.72 			"/>
			
				<rect x="653.512" y="685.099" transform="matrix(0.7855 0.6189 -0.6189 0.7855 566.519 -259.0797)" fill="#E3E3E3" width="6.98" height="5.215"/>
			<polygon fill="#E3E3E3" points="782.134,546.959 774.547,557.568 752.362,541.699 759.94,531.087 			"/>
			<polygon fill="#E3E3E3" points="683.978,781.136 659.702,796.755 646.596,776.372 670.856,760.753 			"/>
			<polygon fill="#E3E3E3" points="684.334,833.333 673.2,840.497 663.259,825.038 674.384,817.873 			"/>
			<polygon fill="#E3E3E3" points="504.54,754.555 497.511,754.717 497.165,739.666 504.191,739.498 			"/>
			
				<rect x="515.254" y="741.666" transform="matrix(0.9997 -0.0231 0.0231 0.9997 -17.0393 12.1587)" fill="#E3E3E3" width="7.031" height="6.719"/>
			<polygon fill="#E3E3E3" points="514.667,820.501 501.497,818.789 502.152,813.769 515.316,815.479 			"/>
			<polygon fill="#E3E3E3" points="289.183,896.079 279.068,888.198 284.108,881.736 294.219,889.611 			"/>
			<polygon fill="#E3E3E3" points="504.769,725.367 497.74,725.528 497.012,693.924 504.038,693.752 			"/>
			<polygon fill="#E3E3E3" points="735.344,835.091 724.333,836.9 720.441,813.193 731.445,811.377 			"/>
			<polygon fill="#E3E3E3" points="880.819,411.668 858.333,442 849.519,435.462 871.996,405.136 			"/>
			<polygon fill="#E3E3E3" points="622.667,334.333 601.098,341.681 596.029,326.795 617.592,319.444 			"/>
			<polygon fill="#E3E3E3" points="893.985,421.502 871.499,451.834 862.685,445.296 885.162,414.969 			"/>
			<polygon fill="#E3E3E3" points="857.022,518.214 851.385,525.455 854.485,527.867 842.627,543.093 839.53,540.68 
				833.066,548.982 844.447,557.852 868.414,527.077 			"/>
		</g>
		<path fill="none" stroke="#000000" stroke-width="2" stroke-miterlimit="10" d="M610.834,338.333l4,10.5
			c0,0,1.333,4.166,7.333,2.333s34.667-11.333,34.667-11.333"/>
		<path fill="none" stroke="#CCCCCC" stroke-width="13" stroke-miterlimit="10" d="M1190.439,218.776
			c-0.777,9.918-9.071,17.724-19.189,17.724c-7.024,0-13.169-3.761-16.531-9.38"/>
	</g>
</g>
</svg>
